# xmcd
#
# Track frame offsets: 
#        150
#        17815
#        30848
#        47469
#        76386
#        97581
#        116691
#        145543
#        163235
#        185294
#        209170
#        261715
#
# Disc length: 3725 seconds
#
# Revision: 1
# Processed by: cddbd v1.5.2PL0 Copyright (c) Steve Scherf et al.
# Submitted via: ExactAudioCopy v0.95b4
#
DISCID=9a0e8b0c
DTITLE=MSMW - Out Louder
DYEAR=2006
DGENRE=Jazz
TTITLE0=Little Walter Rides Again
TTITLE1=Miles Behind
TTITLE2=Incase The World Changes Its Mind
TTITLE3=Tequila and Chocolate
TTITLE4=Tootie Ma is a Big Fine Thing
TTITLE5=Cachaça
TTITLE6=Hanuman
TTITLE7=Telegraph
TTITLE8=What Now
TTITLE9=Julia
TTITLE10=Down The Tube
TTITLE11=Legalize It
EXTD=YEAR: 2006
EXTT0=
EXTT1=
EXTT2=
EXTT3=
EXTT4=
EXTT5=
EXTT6=
EXTT7=
EXTT8=
EXTT9=
EXTT10=
EXTT11=
PLAYORDER=
